<?xml version="1.0" encoding="utf-8"?>
<!-- Generator: Adobe Illustrator 24.0.0, SVG Export Plug-In . SVG Version: 6.00 Build 0)  -->
<svg version="1.1" id="圖層_1" xmlns="http://www.w3.org/2000/svg" xmlns:xlink="http://www.w3.org/1999/xlink" x="0px" y="0px"
	 viewBox="0 0 360 640" style="enable-background:new 0 0 360 640;" xml:space="preserve">
<style type="text/css">
	.st0{fill:#A67C52;}
	.st1{fill:#03BD6C;}
</style>
<path class="st0" d="M174,285.17v139.65c0,7.8,6.38,14.17,14.17,14.17h5.65c7.8,0,14.17-6.38,14.17-14.17V285.17
	c0-7.8-6.38-14.17-14.17-14.17h-5.65C180.38,271,174,277.38,174,285.17z"/>
<g>
	<g>
		<path class="st1" d="M274.4,230.24l-82.5,0.25l-82.5-0.25c0,0-55.15,6.37-5.7,60.25c3.37,3.67,8.14,5.76,13.13,5.77l72.78,0.22
			l0,0.01l2.3-0.01l2.3,0.01l0-0.01l72.78-0.22c4.99-0.02,9.76-2.1,13.13-5.77C329.55,236.61,274.4,230.24,274.4,230.24z"/>
		<path class="st1" d="M257.98,172.18l-67.08,0.21l-67.08-0.21c0,0-44.84,5.18-4.64,48.99c2.74,2.99,6.62,4.68,10.67,4.69
			l59.18,0.18l0,0.01l1.87-0.01l1.87,0.01l0-0.01l59.18-0.18c4.05-0.01,7.93-1.71,10.67-4.69
			C302.83,177.36,257.98,172.18,257.98,172.18z"/>
		<path class="st1" d="M243.57,126.12l-51.67,0.16l-51.67-0.16c0,0-34.54,3.99-3.57,37.73c2.11,2.3,5.1,3.61,8.22,3.62l45.58,0.14
			l0,0.01l1.44,0l1.44,0l0-0.01l45.58-0.14c3.12-0.01,6.11-1.32,8.22-3.62C278.11,130.11,243.57,126.12,243.57,126.12z"/>
		<path class="st1" d="M228.15,92.06l-36.26,0.11l-36.26-0.11c0,0-24.24,2.8-2.51,26.48c1.48,1.61,3.58,2.53,5.77,2.54l31.98,0.1
			l0,0.01l1.01,0l1.01,0l0-0.01l31.98-0.1c2.19-0.01,4.29-0.92,5.77-2.54C252.39,94.86,228.15,92.06,228.15,92.06z"/>
		<path class="st1" d="M211.74,70l-20.84,0.06L170.06,70c0,0-13.93,1.61-1.44,15.22c0.85,0.93,2.06,1.45,3.32,1.46l18.38,0.06l0,0
			l0.58,0l0.58,0l0,0l18.38-0.06c1.26,0,2.46-0.53,3.32-1.46C225.67,71.61,211.74,70,211.74,70z"/>
	</g>
</g>
</svg>
